<svg width="34" height="34" viewBox="0 0 34 34" fill="none" xmlns="http://www.w3.org/2000/svg">
<path d="M17.0013 33.9961C12.4868 33.9961 8.22471 32.2204 5.001 28.996C1.77598 25.7716 0 21.5104 0 16.998C0 12.4857 1.66221 8.51079 4.68059 5.32823C7.89253 1.9417 12.3835 0 17.0013 0C18.0423 0 18.8871 0.844672 18.8871 1.88547C18.8871 2.92628 18.0423 3.77095 17.0013 3.77095C13.4127 3.77095 9.91961 5.28508 7.41649 7.9237C5.06508 10.4028 3.77167 13.6259 3.77167 16.998C3.77167 20.3702 5.15532 23.8182 7.66759 26.33C10.1799 28.8417 13.4951 30.2251 17.0013 30.2251C20.5075 30.2251 23.5991 28.9307 26.0774 26.581C28.672 24.1215 30.1786 20.7049 30.2296 17.1811C30.1904 16.1011 29.2998 15.2329 28.2091 15.2329C27.1184 15.2329 26.1872 16.139 26.1872 17.2543C26.1872 19.7622 25.2012 22.1301 23.4108 23.9202C21.6204 25.7102 19.2533 26.6961 16.7437 26.6961C11.536 26.6961 7.3001 22.4609 7.3001 17.2543C7.3001 14.7674 8.27179 12.4151 10.0347 10.6303C11.8303 8.81414 14.2118 7.81256 16.7437 7.81256C17.7847 7.81256 18.6295 8.65723 18.6295 9.69804C18.6295 10.7388 17.7847 11.5835 16.7437 11.5835C15.2292 11.5835 13.7998 12.1863 12.7183 13.2807C11.6564 14.3555 11.0718 15.7663 11.0718 17.2556C11.0718 20.3833 13.6167 22.9264 16.7437 22.9264C18.245 22.9264 19.6653 22.3328 20.7442 21.2554C21.8218 20.178 22.4156 18.7567 22.4156 17.2556C22.4156 14.0626 25.0142 11.4645 28.2078 11.4645C31.4014 11.4645 33.8601 13.9253 33.9948 17.0007H34L33.9974 17.2569C33.9268 21.785 31.9938 26.1678 28.6694 29.3203C25.4863 32.3381 21.3419 34 16.9974 34L17.0013 33.9961Z" fill="black"/>
</svg>
