<svg width="24" height="24" viewBox="0 0 24 24" fill="none" xmlns="http://www.w3.org/2000/svg">
<path d="M4.47448 13.7424C4.44691 13.718 4.42212 13.6961 4.4 13.6765V13.5929L4.25355 13.4464C3.14205 12.3349 2.5 10.8601 2.5 9.3V9.10774C2.59574 6.08288 5.17104 3.6 8.2 3.6C8.69857 3.6 9.31735 3.76953 9.91295 4.09024C10.4898 4.40087 11.0087 4.83395 11.3549 5.33448C11.6427 5.99723 12.5858 5.98839 12.8562 5.30796C13.1514 4.77701 13.6617 4.32366 14.2435 3.99918C14.8388 3.66722 15.4553 3.5 15.9 3.5C19.0188 3.5 21.5041 5.97277 21.6 9.10751V9.3C21.6 10.9683 20.9527 12.4317 19.8621 13.4314L19.7 13.58V13.6558C19.6709 13.6799 19.6392 13.7064 19.6054 13.7349C19.4505 13.8656 19.2396 14.0473 18.9875 14.2664C18.483 14.7052 17.8068 15.3 17.0694 15.9499C16.8332 16.1581 16.5907 16.3719 16.3456 16.5881C15.0596 17.7221 13.6987 18.9222 12.7768 19.7184C12.3632 20.0605 11.7368 20.0605 11.3232 19.7184C10.2241 18.7692 8.47727 17.247 6.99153 15.9485C6.24795 15.2987 5.57011 14.7052 5.07202 14.268C4.82293 14.0493 4.61906 13.87 4.47448 13.7424Z" fill="#03FFA3" stroke="#111827"/>
</svg>