<svg width="24" height="24" fill="none" xmlns="http://www.w3.org/2000/svg">
    <path fill-rule="evenodd" clip-rule="evenodd" d="M8.59 7.315a1.245 1.245 0 0 1 1.76-1.76l7.345 7.345c.038-.065.087-.2.087-.417 0-.073-.094-.302-.226-.623-.482-1.178-1.472-3.596-.227-4.13 1.167-.5 2.089 2.072 2.765 3.958.241.674.451 1.26.63 1.587l.066.12c.7 1.275 1.985 3.611-1.085 7.01-3.168 3.508-7.808 1.81-9.392.226a134.159 134.159 0 0 1-2.061-2.11L3.61 13.878a1.245 1.245 0 1 1 1.76-1.76l3.475 3.475.171-.155-5.18-5.181a1.245 1.245 0 0 1 1.76-1.76l5.269 5.268.172-.155L5.42 7.994a1.245 1.245 0 0 1 1.76-1.76l5.705 5.704.171-.155L8.59 7.315Z" fill="#03FFA3"/>
    <path d="M12.396 2.97c.422-.015 1.424.15 2.062.935.637.786.813 1.752.82 2.137M15.17 1.293c.26-.01.88.095 1.277.587.395.492.505 1.095.51 1.335M7.336 20.633c-.418.058-1.431-.007-2.144-.726-.712-.719-.982-1.663-1.028-2.044M4.742 22.577c-.258.035-.886-.007-1.328-.457a2.442 2.442 0 0 1-.64-1.279" stroke="#77E2C4" stroke-width="1.193" stroke-linecap="round"/>
</svg>
