<svg width="54" height="54" viewBox="0 0 54 54" fill="none" xmlns="http://www.w3.org/2000/svg">
<rect width="54" height="54" rx="27" fill="#24292F"/>
<path d="M27 17C21.4779 17 17 21.5904 17 27.2531C17 31.7833 19.8653 35.6266 23.8387 36.9824C24.3384 37.0773 24.5219 36.76 24.5219 36.4891C24.5219 36.2447 24.5126 35.4369 24.5084 34.5802C21.7263 35.2004 21.1392 33.3704 21.1392 33.3704C20.6843 32.1853 20.0289 31.8703 20.0289 31.8703C19.1217 31.2339 20.0973 31.2469 20.0973 31.2469C21.1015 31.3193 21.6303 32.3035 21.6303 32.3035C22.5222 33.871 23.9696 33.4178 24.5403 33.1559C24.63 32.4931 24.8892 32.0409 25.1752 31.7849C22.9541 31.5255 20.6191 30.6464 20.6191 26.7177C20.6191 25.5983 21.0097 24.6836 21.6495 23.9656C21.5456 23.7073 21.2034 22.6645 21.7463 21.2522C21.7463 21.2522 22.5861 20.9766 24.4971 22.3032C25.2947 22.076 26.1502 21.9621 27 21.9582C27.8499 21.9621 28.706 22.076 29.5052 22.3032C31.4139 20.9766 32.2525 21.2522 32.2525 21.2522C32.7968 22.6645 32.4544 23.7073 32.3505 23.9656C32.9917 24.6836 33.3797 25.5982 33.3797 26.7177C33.3797 30.6557 31.0403 31.5229 28.8135 31.7767C29.1722 32.0948 29.4918 32.7189 29.4918 33.6754C29.4918 35.0472 29.4802 36.1514 29.4802 36.4891C29.4802 36.762 29.6602 37.0817 30.1671 36.981C34.1383 35.6237 37 31.7818 37 27.2531C37 21.5904 32.5227 17 27 17Z" fill="white"/>
<path d="M20.8914 31.3867C20.87 31.4352 20.7935 31.4498 20.7241 31.4165C20.6532 31.3847 20.6134 31.3185 20.6364 31.2698C20.6574 31.2198 20.7339 31.2059 20.8046 31.2394C20.8756 31.2712 20.916 31.338 20.8914 31.3867ZM21.3718 31.8154C21.3253 31.8586 21.2342 31.8385 21.1724 31.7702C21.1085 31.7021 21.0966 31.6111 21.1438 31.5673C21.1918 31.5241 21.2801 31.5443 21.3442 31.6125C21.4081 31.6813 21.4205 31.7718 21.3718 31.8154M21.7014 32.3638C21.6415 32.4054 21.5436 32.3664 21.4832 32.2795C21.4234 32.1927 21.4234 32.0886 21.4845 32.0468C21.5452 32.0051 21.6415 32.0426 21.7028 32.1288C21.7625 32.2171 21.7625 32.3213 21.7013 32.3639M22.2587 32.999C22.2052 33.058 22.0912 33.0422 22.0077 32.9616C21.9224 32.8829 21.8986 32.7711 21.9523 32.7121C22.0064 32.6529 22.1211 32.6695 22.2052 32.7494C22.29 32.828 22.3159 32.9406 22.2588 32.999M22.979 33.2134C22.9555 33.2899 22.8457 33.3247 22.7351 33.2922C22.6246 33.2587 22.5523 33.1691 22.5746 33.0918C22.5976 33.0148 22.7079 32.9786 22.8193 33.0134C22.9296 33.0467 23.0021 33.1356 22.9791 33.2134M23.7989 33.3044C23.8017 33.3849 23.7078 33.4517 23.5917 33.4532C23.4749 33.4557 23.3805 33.3905 23.3792 33.3113C23.3792 33.23 23.4709 33.1638 23.5877 33.1619C23.7038 33.1596 23.7989 33.2243 23.7989 33.3044ZM24.6042 33.2735C24.6182 33.3521 24.5374 33.4328 24.4222 33.4543C24.3088 33.4749 24.2039 33.4265 24.1894 33.3486C24.1753 33.268 24.2576 33.1873 24.3707 33.1664C24.4862 33.1463 24.5895 33.1936 24.6042 33.2735Z" fill="white"/>
</svg>
