<svg width="85" height="43" viewBox="0 0 85 43" fill="none" xmlns="http://www.w3.org/2000/svg">
<path d="M28.9766 22.0596C31.7623 21.6019 34.5333 21.0673 37.3153 20.595C37.8345 20.5071 38.0538 20.3021 38.0465 19.7712C38 19.0002 38 19.5 38 18.5C38 17 38.0228 15.6641 35 16C30.5 16.5 31.9992 16.3557 27.5083 17.104C24.5078 17.604 22.7683 19.4001 22.8093 21.604C22.8459 23.5812 22.8166 22.8797 22.8166 24.8532C22.8166 26.922 22.8385 27.039 22.8166 29.104C22.8467 31.1875 24.5 31.5 26.9022 31.1875C28.0762 31.0348 25.764 31.3486 26.9375 31.1875C27.5846 31.0997 28.0114 30.7994 28.0005 30.1623C27.9676 27.852 28.0188 25.5379 27.9676 23.2312C27.9493 22.4477 28.2308 22.1877 28.9693 22.0632L28.9766 22.0596Z" fill="#03FFA3"/>
<path d="M38.0263 25.3261H38.019C38.019 24.3558 37.9861 23.3819 38.03 22.4116C38.0629 21.6866 37.7631 21.4926 37.1051 21.6244C35.9462 21.855 34.7873 22.093 33.6175 22.2651C33.1213 22.2651 32.8352 22.6093 32.8388 23.1585C32.8388 23.7443 32.8388 24.3302 32.8388 24.916C32.4806 24.9783 32.0126 25.0661 31.3838 25.187C28.324 25.7765 29 25.187 28.9016 27.9367C28.9016 28.6434 28.9016 29.1889 28.9016 29.7381C28.9016 29.8691 29.484 30.6828 30.5003 30.4998C31.4873 30.3277 32.5129 30.1755 33.5 29.9998C33.5 29.9998 37.9983 29.4998 37.9983 26.4998C37.9837 25.4672 38.0227 26.3586 38.0227 25.3261H38.0263Z" fill="#03FFA3"/>
<path d="M21.224 22.2122C21.1874 21.0589 21.2057 19.9019 21.2167 18.7485C21.224 18.1004 20.9754 17.9137 20.3173 18.0345C16.3764 18.7595 12.4246 19.4002 8.49097 20.1582C5.4311 20.7476 6.08914 20.0263 6.00871 22.9079C6.00871 23.6146 6.00871 24.1601 6.00871 24.7093C6.01602 25.7089 6.11473 25.7895 7.13103 25.6064C8.11808 25.4343 9.10148 25.2512 10.0885 25.0755C13.5213 24.464 16.954 23.8379 20.3941 23.2521C21.0448 23.1422 21.2423 22.8347 21.224 22.2122Z" fill="#03FFA3"/>
<path d="M21.2195 24.7899C21.2232 24.1894 21.0111 23.9624 20.3933 24.0796C19.1723 24.3139 17.944 24.5336 16.712 24.7093C16.1307 24.7936 15.9589 25.0901 15.9735 25.632C15.9954 26.6353 15.9808 27.6385 15.9808 28.6454C15.9808 29.6816 15.9735 30.7141 15.9808 31.7503C15.9845 32.1604 15.9954 32.5778 16.6242 32.457C17.9074 32.2116 19.1942 31.9773 20.4811 31.7576C21.0367 31.6624 21.2305 31.3622 21.2268 30.8166C21.2085 28.8102 21.2085 26.8 21.2232 24.7936L21.2195 24.7899Z" fill="#03FFA3"/>
<path d="M61.0072 20.4494C60.9958 20.0849 60.7885 19.9554 60.204 20.0505C59.0488 20.2401 57.8863 20.4211 56.7193 20.5756C56.1687 20.6493 56.0127 20.8359 56.04 21.1641C56.0857 21.772 56.0967 22.3813 56.1216 22.9923C56.1473 23.621 56.1659 24.2479 56.1986 24.8763C56.2122 25.125 56.233 25.3778 56.8279 25.2801C58.0418 25.0814 59.2596 24.8893 60.4777 24.706C61.0037 24.6267 61.1805 24.437 61.1635 24.1061C61.0964 22.8893 61.0466 21.6696 61.0107 20.4515L61.0072 20.4494Z" fill="#03FFA3"/>
<path d="M70.9929 10.0901C70.9836 9.77588 70.7771 9.66539 70.1922 9.75066C69.0362 9.92062 67.873 10.0832 66.7053 10.223C66.1544 10.2896 65.9974 10.4513 66.0229 10.7342C66.0652 11.258 66.0727 11.7832 66.0942 12.3098C66.1163 12.8517 66.1314 13.392 66.1605 13.9336C66.1727 14.148 66.1921 14.3658 66.7874 14.2782C68.0022 14.1001 69.2207 13.9276 70.4396 13.7627C70.9659 13.6914 71.1437 13.5268 71.1286 13.2416C71.0684 12.193 71.0254 11.1417 70.9965 10.0918L70.9929 10.0901Z" fill="#03FFA3"/>
<path d="M70.7885 11.9384C70.7296 11.3398 70.7246 10.7373 70.7124 10.1369C70.7067 9.79955 70.4582 9.71178 69.8128 9.79942C65.9475 10.325 62.0696 10.8071 58.2121 11.3496C55.2114 11.7715 55.8449 11.3715 55.8231 12.8734C55.8371 13.241 55.848 13.5248 55.8589 13.8104C55.886 14.3301 55.9848 14.3683 56.9817 14.2348C57.95 14.1081 58.9145 13.9758 59.8828 13.8472C63.2501 13.3998 66.6172 12.9449 69.9922 12.5105C70.6307 12.4289 70.8189 12.2615 70.7885 11.9384Z" fill="#03FFA3"/>
<path d="M71.2026 22.9306C71.1437 22.332 71.1386 21.7295 71.1265 21.1291C71.1208 20.7917 70.8723 20.704 70.2269 20.7916C66.3615 21.3172 62.4837 21.7993 58.6262 22.3418C55.6255 22.7637 56.2589 22.3637 56.2371 23.8656C56.2512 24.2332 56.262 24.517 56.273 24.8026C56.3001 25.3223 56.3988 25.3605 57.3957 25.227C58.3641 25.1003 59.3286 24.968 60.2968 24.8394C63.6642 24.392 67.0312 23.937 70.4063 23.5027C71.0448 23.4211 71.233 23.2537 71.2026 22.9306Z" fill="#03FFA3"/>
<path d="M71.294 17.0513C71.2307 16.3607 71.2225 15.6658 71.2071 14.9734C71.1996 14.5843 70.9455 14.4818 70.2871 14.5796C66.3439 15.1661 62.3879 15.7025 58.4528 16.3084C55.3918 16.7798 56.0365 16.3217 56.0218 18.0536C56.038 18.4776 56.0506 18.8049 56.0632 19.1345C56.0935 19.7339 56.1945 19.7784 57.2115 19.6295C58.1993 19.4883 59.1832 19.3407 60.1709 19.1973C63.6061 18.6984 67.0409 18.1908 70.484 17.7071C71.1353 17.6162 71.3266 17.424 71.294 17.0513Z" fill="#03FFA3"/>
<path d="M44.246 20.8418C44.246 18.8976 44.246 16.9534 44.246 15.0055C44.246 13.8265 44.1766 13.7679 42.9848 13.9766C41.91 14.167 40.8425 14.4123 39.7604 14.5625C39.1718 14.643 39.0037 14.9249 39.0037 15.4668C39.011 19.6006 39.0146 23.7344 39 27.8645C39 28.5199 39.2778 28.6407 39.8481 28.5235C41.0363 28.2855 42.228 28.0256 43.4271 27.8718C44.1107 27.7839 44.2606 27.4727 44.2533 26.8539C44.2277 24.8474 44.2424 22.841 44.2424 20.8382L44.246 20.8418Z" fill="#03FFA3"/>
<path d="M54.2692 23.2404C54.2582 22.0834 54.2545 22.0687 53.0847 22.2591C51.0484 22.5923 49.0049 22.8925 46.9869 23.3099C45.148 23.6907 45.3235 23.1854 45.3089 25.353C45.3089 25.7778 45.3381 26.2061 45.3052 26.6272C45.2504 27.3302 45.5465 27.5499 46.2228 27.4217C48.3103 27.03 50.405 26.6821 52.4925 26.2794C54.2765 25.9352 54.2728 25.9096 54.2692 24.0569C54.2692 23.7823 54.2692 23.5113 54.2692 23.2367V23.2404Z" fill="#03FFA3"/>
<path d="M54.2477 13.0724C54.2367 11.9154 54.233 11.9007 53.0632 12.0911C51.027 12.4243 48.9834 12.7246 46.9654 13.142C45.1266 13.5228 45.302 13.0175 45.2874 15.1851C45.2874 15.6098 45.3167 16.0382 45.2838 16.4592C45.2289 17.1622 45.525 17.3819 46.2014 17.2538C48.2888 16.862 50.3835 16.5142 52.471 16.1114C54.255 15.7672 54.2513 15.7416 54.2477 13.8889C54.2477 13.6143 54.2477 13.3434 54.2477 13.0687V13.0724Z" fill="#03FFA3"/>
</svg>
