<svg width="122" height="28" viewBox="0 0 122 28" fill="none" xmlns="http://www.w3.org/2000/svg">
<path d="M13.96 7.64C11.9067 7.64 10.3333 8.26667 9.24 9.52C8.14667 10.7733 7.6 12.5467 7.6 14.84C7.6 17.16 8.2 18.9467 9.4 20.2C10.6267 21.4533 12.2667 22.08 14.32 22.08C15.4133 22.08 16.3333 21.9333 17.08 21.64C17.8533 21.3467 18.5867 21.0133 19.28 20.64C19.7333 21.0133 20.08 21.4667 20.32 22C20.5867 22.5067 20.72 23.1067 20.72 23.8C20.72 24.8933 20.1067 25.8267 18.88 26.6C17.68 27.3467 15.84 27.72 13.36 27.72C11.5733 27.72 9.89333 27.4667 8.32 26.96C6.74667 26.4533 5.37333 25.68 4.2 24.64C3.02667 23.5733 2.09333 22.24 1.4 20.64C0.733333 19.0133 0.4 17.08 0.4 14.84C0.4 12.76 0.72 10.9333 1.36 9.36C2.02667 7.76 2.92 6.41333 4.04 5.32C5.18667 4.22667 6.52 3.4 8.04 2.84C9.56 2.28 11.1867 2 12.92 2C15.3733 2 17.2667 2.4 18.6 3.2C19.96 4 20.64 5.02667 20.64 6.28C20.64 6.97333 20.4667 7.57333 20.12 8.08C19.7733 8.58667 19.3733 8.98667 18.92 9.28C18.2267 8.82667 17.48 8.44 16.68 8.12C15.9067 7.8 15 7.64 13.96 7.64ZM43.5438 17.28C43.5438 18.9333 43.2904 20.4133 42.7838 21.72C42.2771 23 41.5571 24.08 40.6238 24.96C39.7171 25.84 38.6238 26.5067 37.3438 26.96C36.0638 27.4133 34.6371 27.64 33.0638 27.64C31.4904 27.64 30.0638 27.4 28.7838 26.92C27.5038 26.44 26.3971 25.76 25.4638 24.88C24.5571 23.9733 23.8504 22.88 23.3438 21.6C22.8371 20.32 22.5838 18.88 22.5838 17.28C22.5838 15.7067 22.8371 14.28 23.3438 13C23.8504 11.72 24.5571 10.64 25.4638 9.76C26.3971 8.85333 27.5038 8.16 28.7838 7.68C30.0638 7.2 31.4904 6.96 33.0638 6.96C34.6371 6.96 36.0638 7.21333 37.3438 7.72C38.6238 8.2 39.7171 8.89333 40.6238 9.8C41.5571 10.68 42.2771 11.76 42.7838 13.04C43.2904 14.32 43.5438 15.7333 43.5438 17.28ZM29.5438 17.28C29.5438 18.9067 29.8504 20.16 30.4638 21.04C31.1038 21.8933 31.9838 22.32 33.1037 22.32C34.2238 22.32 35.0771 21.88 35.6638 21C36.2771 20.12 36.5838 18.88 36.5838 17.28C36.5838 15.68 36.2771 14.4533 35.6638 13.6C35.0504 12.72 34.1838 12.28 33.0638 12.28C31.9438 12.28 31.0771 12.72 30.4638 13.6C29.8504 14.4533 29.5438 15.68 29.5438 17.28ZM54.3413 19.16V26.84C54.0479 26.92 53.5813 27 52.9413 27.08C52.3279 27.16 51.7146 27.2 51.1013 27.2C50.4879 27.2 49.9413 27.1467 49.4613 27.04C49.0079 26.96 48.6213 26.8 48.3013 26.56C48.0079 26.32 47.7813 25.9867 47.6213 25.56C47.4613 25.1333 47.3813 24.5733 47.3813 23.88V5.04C47.3813 4.48 47.5279 4.05333 47.8213 3.76C48.1413 3.44 48.5679 3.18666 49.1013 3C50.0079 2.68 51.0613 2.45333 52.2613 2.32C53.4613 2.16 54.7413 2.08 56.1013 2.08C59.7813 2.08 62.5546 2.85333 64.4213 4.4C66.2879 5.94667 67.2213 8.04 67.2213 10.68C67.2213 12.3333 66.7946 13.7467 65.9413 14.92C65.0879 16.0933 64.0746 17 62.9013 17.64C63.8613 18.9467 64.8079 20.1733 65.7413 21.32C66.6746 22.4667 67.4079 23.5067 67.9413 24.44C67.6746 25.3733 67.1813 26.0933 66.4613 26.6C65.7679 27.08 64.9813 27.32 64.1013 27.32C63.5146 27.32 63.0079 27.2533 62.5813 27.12C62.1546 26.9867 61.7813 26.8 61.4613 26.56C61.1413 26.32 60.8479 26.0267 60.5813 25.68C60.3146 25.3333 60.0613 24.96 59.8213 24.56L56.4613 19.16H54.3413ZM56.8613 13.84C57.8746 13.84 58.6746 13.5867 59.2613 13.08C59.8479 12.5467 60.1413 11.7733 60.1413 10.76C60.1413 9.74667 59.8079 8.98667 59.1413 8.48C58.5013 7.94667 57.4746 7.68 56.0613 7.68C55.6613 7.68 55.3413 7.69333 55.1013 7.72C54.8613 7.74667 54.5946 7.78667 54.3013 7.84V13.84H56.8613ZM80.9303 27.64C79.357 27.64 77.8903 27.4267 76.5303 27C75.197 26.5467 74.0236 25.88 73.0103 25C72.0236 24.12 71.237 23.0133 70.6503 21.68C70.0903 20.3467 69.8103 18.7867 69.8103 17C69.8103 15.24 70.0903 13.7333 70.6503 12.48C71.237 11.2 71.997 10.16 72.9303 9.36C73.8636 8.53333 74.9303 7.93333 76.1303 7.56C77.3303 7.16 78.557 6.96 79.8103 6.96C81.2236 6.96 82.5036 7.17333 83.6503 7.6C84.8236 8.02667 85.8236 8.61333 86.6503 9.36C87.5036 10.1067 88.157 11 88.6103 12.04C89.0903 13.08 89.3303 14.2133 89.3303 15.44C89.3303 16.3467 89.077 17.04 88.5703 17.52C88.0636 18 87.357 18.3067 86.4503 18.44L76.5703 19.92C76.8636 20.8 77.4636 21.4667 78.3703 21.92C79.277 22.3467 80.317 22.56 81.4903 22.56C82.5836 22.56 83.6103 22.4267 84.5703 22.16C85.557 21.8667 86.357 21.5333 86.9703 21.16C87.397 21.4267 87.757 21.8 88.0503 22.28C88.3436 22.76 88.4903 23.2667 88.4903 23.8C88.4903 25 87.9303 25.8933 86.8103 26.48C85.957 26.9333 84.997 27.24 83.9303 27.4C82.8636 27.56 81.8636 27.64 80.9303 27.64ZM79.8103 11.92C79.1703 11.92 78.6103 12.0267 78.1303 12.24C77.677 12.4533 77.3036 12.7333 77.0103 13.08C76.717 13.4 76.4903 13.7733 76.3303 14.2C76.197 14.6 76.117 15.0133 76.0903 15.44L82.9303 14.32C82.8503 13.7867 82.557 13.2533 82.0503 12.72C81.5436 12.1867 80.797 11.92 79.8103 11.92ZM100.923 22.68C101.377 22.68 101.87 22.64 102.403 22.56C102.963 22.4533 103.377 22.32 103.643 22.16V18.96L100.763 19.2C100.017 19.2533 99.4034 19.4133 98.9234 19.68C98.4434 19.9467 98.2034 20.3467 98.2034 20.88C98.2034 21.4133 98.4034 21.8533 98.8034 22.2C99.2301 22.52 99.9368 22.68 100.923 22.68ZM100.603 6.96C102.043 6.96 103.35 7.10667 104.523 7.4C105.723 7.69333 106.737 8.14667 107.563 8.76C108.417 9.34667 109.07 10.1067 109.523 11.04C109.977 11.9467 110.203 13.0267 110.203 14.28V23.24C110.203 23.9333 110.003 24.5067 109.603 24.96C109.23 25.3867 108.777 25.76 108.243 26.08C106.51 27.12 104.07 27.64 100.923 27.64C99.5101 27.64 98.2301 27.5067 97.0834 27.24C95.9634 26.9733 94.9901 26.5733 94.1634 26.04C93.3634 25.5067 92.7368 24.8267 92.2834 24C91.8568 23.1733 91.6434 22.2133 91.6434 21.12C91.6434 19.28 92.1901 17.8667 93.2834 16.88C94.3768 15.8933 96.0701 15.28 98.3634 15.04L103.603 14.48V14.2C103.603 13.4267 103.257 12.88 102.563 12.56C101.897 12.2133 100.923 12.04 99.6434 12.04C98.6301 12.04 97.6434 12.1467 96.6834 12.36C95.7234 12.5733 94.8568 12.84 94.0834 13.16C93.7368 12.92 93.4434 12.56 93.2034 12.08C92.9634 11.5733 92.8434 11.0533 92.8434 10.52C92.8434 9.82667 93.0034 9.28 93.3234 8.88C93.6701 8.45333 94.1901 8.09333 94.8834 7.8C95.6568 7.50667 96.5634 7.29333 97.6034 7.16C98.6701 7.02667 99.6701 6.96 100.603 6.96ZM121.281 26.96C120.988 27.0133 120.548 27.08 119.961 27.16C119.401 27.2667 118.828 27.32 118.241 27.32C117.655 27.32 117.121 27.28 116.641 27.2C116.188 27.12 115.801 26.96 115.481 26.72C115.161 26.48 114.908 26.16 114.721 25.76C114.561 25.3333 114.481 24.7867 114.481 24.12V0.92C114.775 0.866665 115.201 0.799999 115.761 0.72C116.348 0.613333 116.935 0.559999 117.521 0.559999C118.108 0.559999 118.628 0.599999 119.081 0.679998C119.561 0.759998 119.961 0.919999 120.281 1.16C120.601 1.4 120.841 1.73333 121.001 2.16C121.188 2.56 121.281 3.09333 121.281 3.76V26.96Z" fill="#1F2937"/>
</svg>
