<svg width="72" height="72" viewBox="0 0 72 72" fill="none" xmlns="http://www.w3.org/2000/svg">
<circle cx="36" cy="36" r="35" fill="#EBE2FF" stroke="#1F2937" stroke-width="2"/>
<path d="M19.004 18.2797C18.9456 18.4548 18.9456 18.6299 19.004 18.6883C19.0623 18.7467 18.6343 20.2059 18.0506 21.9375C17.4669 23.669 17 25.245 17 25.4395C17 25.6341 17.5253 26.9182 18.1479 28.2607C20.5799 33.4554 28.1483 50.2265 28.4207 50.9853C28.8098 52.1332 29.3157 52.5223 31.6115 53.4757C32.7205 53.9426 34.5104 54.7209 35.561 55.2267C37.4483 56.1022 37.9347 56.1995 38.1098 55.6937C38.1487 55.5575 38.6935 54.0983 39.2966 52.464C39.9387 50.6935 40.3472 49.3121 40.2889 49.0592C40.2305 48.8257 39.4717 46.919 38.5962 44.8372C37.7207 42.7554 34.9968 36.1987 32.5454 30.2646C30.0939 24.3306 28.0121 19.3887 27.9343 19.3109C27.837 19.2136 26.0665 18.9996 23.9847 18.8245C21.3776 18.6299 20.113 18.4548 19.8989 18.2603C19.5098 17.9101 19.1596 17.9101 19.004 18.2797ZM23.7512 19.4665C25.0548 19.5444 26.2222 19.6611 26.3583 19.7389C26.5335 19.8557 26.1638 20.6923 25.0548 22.7546C24.1987 24.3306 23.4205 25.6147 23.3232 25.6147C23.1286 25.6147 20.5215 19.8168 20.5021 19.3693C20.5021 19.1942 20.6383 19.1553 20.9496 19.2136C21.183 19.272 22.4477 19.3887 23.7512 19.4665ZM21.0858 23.455C21.7862 25.0504 22.3699 26.4318 22.4088 26.5291C22.4282 26.6264 21.5138 26.3151 20.3659 25.8481C19.218 25.3812 18.2646 24.9337 18.2646 24.8364C18.2646 24.5057 19.6071 20.5172 19.7044 20.5172C19.7822 20.5172 20.3853 21.8402 21.0858 23.455ZM31.8839 31.3153C34.2186 36.977 36.7673 43.164 37.565 45.0318C38.3627 46.8995 39.0631 48.6895 39.102 49.0202C39.1993 49.6428 37.8179 53.8064 37.5066 53.8259C37.1175 53.8453 30.4441 41.0822 26.1249 31.9962L23.8485 27.2295L25.4245 24.2138C27.1366 20.9063 27.3117 20.6145 27.5063 20.8479C27.5841 20.9258 29.5491 25.6341 31.8839 31.3153ZM20.5021 26.7236C21.4749 27.1322 22.4477 27.5992 22.7006 27.7743C22.9535 27.9494 23.7707 29.3891 24.763 31.5293C27.156 36.6073 31.2224 44.6621 34.0435 49.8958C35.3859 52.4056 36.5533 54.5847 36.6117 54.7209C36.67 54.896 36.3587 54.8181 35.7556 54.5068C35.2108 54.2345 33.9657 53.6702 32.9539 53.2422C31.9422 52.8142 30.8721 52.3667 30.5803 52.2305C30.1328 52.0165 29.2184 50.1292 24.2182 39.0977C20.9885 32.0157 18.3619 26.1594 18.3619 26.0816C18.3619 25.8481 18.751 25.9649 20.5021 26.7236Z" fill="#111827"/>
<path d="M52.4654 42.2054C52.2928 42.2542 51.6567 42.7192 51.0422 43.2219C50.4278 43.7245 49.4789 44.3086 48.9504 44.5414C48.0713 44.915 47.6666 44.9263 46.506 44.5987C46.031 44.4699 46.0315 44.8908 46.5014 45.2031C47.506 45.8709 47.0778 48.3429 45.3716 51.5074C44.9464 52.3228 44.8174 52.7277 44.9418 52.9271C45.25 53.3422 45.5034 53.207 46.554 52.013C47.8255 50.592 49.4646 49.6023 51.2609 49.1843C52.0539 49.0105 52.6957 48.783 52.6794 48.7021C52.6524 48.6374 52.4359 48.1898 52.1763 47.7369C51.5866 46.6908 51.709 45.4172 52.5809 43.7539C53.0437 42.8468 53.1511 42.4743 52.9782 42.3126C52.8431 42.1995 52.6218 42.1458 52.4654 42.2054ZM50.8996 45.4399C50.7922 45.8123 50.8472 46.5731 50.9991 47.1179L51.281 48.0996L49.7708 48.6144C48.9456 48.9069 48.1205 49.2696 47.9264 49.4209C47.4791 49.7777 47.4031 49.4702 47.7258 48.7035C47.8656 48.3526 47.9455 47.5646 47.9068 46.9549L47.8351 45.8326L48.7252 45.5832C49.2052 45.4584 49.9064 45.1768 50.246 44.9821C50.5803 44.7604 50.9039 44.625 50.9687 44.6681C51.0173 44.7004 50.9908 45.0566 50.8996 45.4399Z" fill="#111827"/>
<path d="M48.8495 29.7141C48.2075 30.2589 47.5654 30.7064 47.4292 30.7064C47.1374 30.7064 45.6393 29.7141 45.2696 29.2666C44.9583 28.897 44.0828 28.858 44.0828 29.2083C44.0828 29.3639 44.2968 30.1227 44.5692 30.9009C44.8416 31.6792 45.0556 32.438 45.0556 32.5741C45.0556 32.7103 44.219 33.4886 43.2073 34.3252C41.9426 35.3369 41.3979 35.8817 41.5341 36.0179C41.6703 36.1541 42.429 36.1346 43.8882 35.9595C45.0751 35.8233 46.0673 35.7455 46.1062 35.7844C46.1451 35.8233 46.5148 36.9128 46.9428 38.1969C47.6238 40.2982 47.76 40.5317 48.188 40.59C48.6744 40.6484 48.6939 40.5706 49.2192 38.2553C49.511 36.9323 49.8223 35.726 49.9002 35.5704C50.0169 35.3564 50.5811 35.2396 51.9819 35.1229C53.7135 34.9867 54.6474 34.6948 54.1027 34.4614C54.0054 34.4225 53.1688 33.975 52.2543 33.4691L50.6006 32.5352V31.6792C50.62 31.1928 50.6589 30.3562 50.6978 29.8308C50.7757 28.9748 50.7562 28.858 50.406 28.7997C50.1725 28.7802 49.5499 29.1304 48.8495 29.7141ZM49.4527 31.6013C49.3554 31.8543 49.2776 31.8348 48.869 31.5624L48.3826 31.2511L48.9079 30.8036L49.4332 30.3367L49.4916 30.8426C49.5305 31.0955 49.511 31.4457 49.4527 31.6013ZM46.5343 31.3095C46.5926 31.4262 46.5537 31.6208 46.437 31.7375C46.1841 31.9905 45.9311 31.7764 45.7366 31.1344C45.6198 30.7258 45.6393 30.6869 45.9895 30.8815C46.223 30.9982 46.4564 31.1928 46.5343 31.3095ZM48.4409 32.2823C49.1997 32.7298 49.3359 33.294 48.9468 34.2863C48.7912 34.7338 48.655 34.7921 47.8184 34.7921H46.8845L46.651 33.8777C46.4175 33.0216 46.4175 32.9633 46.9234 32.4185C47.5654 31.757 47.5654 31.757 48.4409 32.2823ZM51.301 33.8388C51.7485 34.0528 52.0598 34.2668 52.0209 34.2863C52.0014 34.3252 51.5539 34.4225 51.0481 34.4808L50.1142 34.617V34.0333C50.1142 33.3135 50.2698 33.294 51.301 33.8388ZM45.7366 34.4419C45.8533 34.8894 45.7949 34.9867 45.4058 35.0645C44.5692 35.2396 43.6937 35.3174 43.6937 35.2007C43.6937 34.9672 45.3474 33.6637 45.4836 33.7804C45.5615 33.8582 45.6782 34.1501 45.7366 34.4419ZM48.7522 35.5509C48.7522 35.94 48.2853 37.8078 48.1491 37.9635C48.0713 38.0607 47.8573 37.6716 47.6822 37.0879C47.4876 36.5237 47.293 35.9595 47.2541 35.8233C47.1763 35.6093 47.5849 35.4731 48.4215 35.3953C48.5966 35.3953 48.7522 35.4536 48.7522 35.5509Z" fill="#111827"/>
<path d="M33.2695 53.8978L37.4283 55.4299L38.7415 51.709L33.2695 53.8978Z" fill="#111827"/>
</svg>
